HIERARCHY
ROOT ZeroOut_JNT
{
  OFFSET 0 0 0
  CHANNELS 6 Xposition Yposition Zposition Zrotation Xrotation Yrotation
  JOINT SpineFinal_1_JNT
  {
    OFFSET 0 59.8141 -42.9993
    CHANNELS 6 Xposition Yposition Zposition Zrotation Xrotation Yrotation
    JOINT l_legIKClavicle_Root_JNT
    {
      OFFSET -0.323145 -1.55994 9.59625
      CHANNELS 6 Xposition Yposition Zposition Zrotation Xrotation Yrotation
      JOINT l_legBlendRoot_JNT
      {
        OFFSET 16.1374 0 0
        CHANNELS 6 Xposition Yposition Zposition Zrotation Xrotation Yrotation
        JOINT l_legBlendMiddle_JNT
        {
          OFFSET 27.0969 0 0
          CHANNELS 6 Xposition Yposition Zposition Zrotation Xrotation Yrotation
          JOINT l_legBlendEnd_JNT
          {
            OFFSET 24.8414 0 0
            CHANNELS 6 Xposition Yposition Zposition Zrotation Xrotation Yrotation
            JOINT l_legBlendTip_JNT
            {
              OFFSET 6.77858 0 0
              CHANNELS 6 Xposition Yposition Zposition Zrotation Xrotation Yrotation
              End Site
              {
                OFFSET 0 0 0
              }
            }
          }
        }
      }
    }
    JOINT SpineFinal_2_JNT
    {
      OFFSET -19.5366 0.0587492 -0.00256357
      CHANNELS 6 Xposition Yposition Zposition Zrotation Xrotation Yrotation
      JOINT SpineFinal_3_JNT
      {
        OFFSET -19.4679 1.47333 -0.00136182
        CHANNELS 6 Xposition Yposition Zposition Zrotation Xrotation Yrotation
        JOINT SpineFinal_4_JNT
        {
          OFFSET -18.2335 5.20609 0
          CHANNELS 6 Xposition Yposition Zposition Zrotation Xrotation Yrotation
          JOINT SpineFinal_5_JNT
          {
            OFFSET -17.3574 8.01768 -1.82773e-005
            CHANNELS 6 Xposition Yposition Zposition Zrotation Xrotation Yrotation
            JOINT SpineFinal_6_JNT
            {
              OFFSET -19.144 8.35871 0
              CHANNELS 6 Xposition Yposition Zposition Zrotation Xrotation Yrotation
              JOINT SpineFinal_7_JNT
              {
                OFFSET -16.3943 7.24542 0
                CHANNELS 6 Xposition Yposition Zposition Zrotation Xrotation Yrotation
                JOINT SpineFinal_8_JNT
                {
                  OFFSET -19.3877 2.40349 0
                  CHANNELS 6 Xposition Yposition Zposition Zrotation Xrotation Yrotation
                  JOINT head_JNT
                  {
                    OFFSET -13.796 -11.6756 0
                    CHANNELS 6 Xposition Yposition Zposition Zrotation Xrotation Yrotation
                    JOINT l_hornRoot_JNT
                    {
                      OFFSET -15.825 14.8229 15.3879
                      CHANNELS 6 Xposition Yposition Zposition Zrotation Xrotation Yrotation
                      JOINT l_hornMid_JNT
                      {
                        OFFSET 6.55118 0 0
                        CHANNELS 6 Xposition Yposition Zposition Zrotation Xrotation Yrotation
                        JOINT l_hornEnd_JNT
                        {
                          OFFSET 6.73503 0 0
                          CHANNELS 6 Xposition Yposition Zposition Zrotation Xrotation Yrotation
                          End Site
                          {
                            OFFSET 0 0 0
                          }
                        }
                      }
                    }
                    JOINT headJend_JNT
                    {
                      OFFSET 1.34858 -27.5886 0
                      CHANNELS 6 Xposition Yposition Zposition Zrotation Xrotation Yrotation
                      End Site
                      {
                        OFFSET 0 0 0
                      }
                    }
                    JOINT r_hornRoot_JNT
                    {
                      OFFSET -15.825 14.8229 -15.3879
                      CHANNELS 6 Xposition Yposition Zposition Zrotation Xrotation Yrotation
                      JOINT r_hornMid_JNT
                      {
                        OFFSET -2.40814 5.46468 -2.69372
                        CHANNELS 6 Xposition Yposition Zposition Zrotation Xrotation Yrotation
                        JOINT r_hornEnd_JNT
                        {
                          OFFSET -2.40922 6.0083 -1.85921
                          CHANNELS 6 Xposition Yposition Zposition Zrotation Xrotation Yrotation
                          End Site
                          {
                            OFFSET 0 0 0
                          }
                        }
                      }
                    }
                    JOINT m_upLip_JNT
                    {
                      OFFSET 4.72477 -9.87974 0
                      CHANNELS 6 Xposition Yposition Zposition Zrotation Xrotation Yrotation
                      JOINT l_lipUpRoot_JNT
                      {
                        OFFSET 2.68891 -0.690234 4.02874
                        CHANNELS 6 Xposition Yposition Zposition Zrotation Xrotation Yrotation
                        JOINT l_lipUpEnd_JNT
                        {
                          OFFSET 0 0 -14.9226
                          CHANNELS 6 Xposition Yposition Zposition Zrotation Xrotation Yrotation
                          End Site
                          {
                            OFFSET 0 0 0
                          }
                        }
                      }
                      JOINT m_upLipRoot_JNT
                      {
                        OFFSET 0 0 3.94939
                        CHANNELS 6 Xposition Yposition Zposition Zrotation Xrotation Yrotation
                        JOINT m_upLipEnd_JNT
                        {
                          OFFSET 0 0 15.0019
                          CHANNELS 6 Xposition Yposition Zposition Zrotation Xrotation Yrotation
                          End Site
                          {
                            OFFSET 0 0 0
                          }
                        }
                      }
                      JOINT r_lipUpRoot_JNT
                      {
                        OFFSET -2.689 -0.690236 4.02875
                        CHANNELS 6 Xposition Yposition Zposition Zrotation Xrotation Yrotation
                        JOINT r_lipUpEnd_JNT
                        {
                          OFFSET 9.35075e-005 -0.000392738 14.9226
                          CHANNELS 6 Xposition Yposition Zposition Zrotation Xrotation Yrotation
                          End Site
                          {
                            OFFSET 0 0 0
                          }
                        }
                      }
                    }
                    JOINT m_DnLip_JNT
                    {
                      OFFSET 6.0207 -9.81639 0
                      CHANNELS 6 Xposition Yposition Zposition Zrotation Xrotation Yrotation
                      JOINT l_lipDn_JNT
                      {
                        OFFSET 2.71301 -0.162748 3.99146
                        CHANNELS 6 Xposition Yposition Zposition Zrotation Xrotation Yrotation
                        JOINT l_lipEnd_JNT
                        {
                          OFFSET 0 0 -14.9599
                          CHANNELS 6 Xposition Yposition Zposition Zrotation Xrotation Yrotation
                          End Site
                          {
                            OFFSET 0 0 0
                          }
                        }
                      }
                      JOINT m_dnLip_JNT
                      {
                        OFFSET 0 -0.0431035 3.99141
                        CHANNELS 6 Xposition Yposition Zposition Zrotation Xrotation Yrotation
                        JOINT m_dnLipEnd_JNT
                        {
                          OFFSET 0 0 14.9599
                          CHANNELS 6 Xposition Yposition Zposition Zrotation Xrotation Yrotation
                          End Site
                          {
                            OFFSET 0 0 0
                          }
                        }
                      }
                      JOINT r_lipDn_JNT
                      {
                        OFFSET -2.71301 -0.162761 3.99141
                        CHANNELS 6 Xposition Yposition Zposition Zrotation Xrotation Yrotation
                        JOINT r_lipDnEnd_JNT
                        {
                          OFFSET 0 0 14.9599
                          CHANNELS 6 Xposition Yposition Zposition Zrotation Xrotation Yrotation
                          End Site
                          {
                            OFFSET 0 0 0
                          }
                        }
                      }
                    }
                    JOINT l_lid_JNT
                    {
                      OFFSET -7.85698 -6.72885 9.63956
                      CHANNELS 6 Xposition Yposition Zposition Zrotation Xrotation Yrotation
                      End Site
                      {
                        OFFSET 0 0 0
                      }
                    }
                    JOINT r_lid_JNT
                    {
                      OFFSET -7.85684 -6.72882 -9.63956
                      CHANNELS 6 Xposition Yposition Zposition Zrotation Xrotation Yrotation
                      End Site
                      {
                        OFFSET 0 0 0
                      }
                    }
                  }
                }
              }
            }
            JOINT l_FwClavicleRoot_JNT
            {
              OFFSET -0.15532 -4.55898 6.72563
              CHANNELS 6 Xposition Yposition Zposition Zrotation Xrotation Yrotation
              JOINT l_FwLegBlendRoot_JNT
              {
                OFFSET 21.051 0 0
                CHANNELS 6 Xposition Yposition Zposition Zrotation Xrotation Yrotation
                JOINT l_FwLegBlendMiddle_JNT
                {
                  OFFSET 33.1145 0 0
                  CHANNELS 6 Xposition Yposition Zposition Zrotation Xrotation Yrotation
                  JOINT l_FwLegBlendTip_JNT
                  {
                    OFFSET 29.9221 0 0
                    CHANNELS 6 Xposition Yposition Zposition Zrotation Xrotation Yrotation
                    JOINT l_FwLegBlendEnd_JNT
                    {
                      OFFSET 9.62649 0 0
                      CHANNELS 6 Xposition Yposition Zposition Zrotation Xrotation Yrotation
                      End Site
                      {
                        OFFSET 0 0 0
                      }
                    }
                  }
                }
              }
            }
            JOINT r_FwClavicleRoot_JNT
            {
              OFFSET -0.15532 -4.55898 -6.72563
              CHANNELS 6 Xposition Yposition Zposition Zrotation Xrotation Yrotation
              JOINT r_FwLegBlendRoot_JNT
              {
                OFFSET 1.1653 -12.7157 -16.7361
                CHANNELS 6 Xposition Yposition Zposition Zrotation Xrotation Yrotation
                JOINT r_FwLegBlendMiddle_JNT
                {
                  OFFSET 16.2308 -5.97551 28.2387
                  CHANNELS 6 Xposition Yposition Zposition Zrotation Xrotation Yrotation
                  JOINT r_FwLegBlendTip_JNT
                  {
                    OFFSET 26.7017 -9.19239 -9.89204
                    CHANNELS 6 Xposition Yposition Zposition Zrotation Xrotation Yrotation
                    JOINT r_FwLegBlendEnd_JNT
                    {
                      OFFSET 4.44874 -7.74942 3.58114
                      CHANNELS 6 Xposition Yposition Zposition Zrotation Xrotation Yrotation
                      End Site
                      {
                        OFFSET 0 0 0
                      }
                    }
                  }
                }
              }
            }
          }
        }
      }
    }
    JOINT r_legIKClavicle_Root_JNT
    {
      OFFSET -0.323145 -1.55994 -9.59625
      CHANNELS 6 Xposition Yposition Zposition Zrotation Xrotation Yrotation
      JOINT r_legBlendRoot_JNT
      {
        OFFSET 13.2848 -5.74129 -7.13912
        CHANNELS 6 Xposition Yposition Zposition Zrotation Xrotation Yrotation
        JOINT r_legBlendMiddle_JNT
        {
          OFFSET 14.815 16.9375 15.0957
          CHANNELS 6 Xposition Yposition Zposition Zrotation Xrotation Yrotation
          JOINT r_legBlendEnd_JNT
          {
            OFFSET 23.6904 -6.58016 -3.54465
            CHANNELS 6 Xposition Yposition Zposition Zrotation Xrotation Yrotation
            JOINT r_legBlendTip_JNT
            {
              OFFSET 1.47758 -6.16068 -2.41079
              CHANNELS 6 Xposition Yposition Zposition Zrotation Xrotation Yrotation
              End Site
              {
                OFFSET 0 0 0
              }
            }
          }
        }
      }
    }
    JOINT tailRoot_JNT
    {
      OFFSET 2.82533 14.5514 0
      CHANNELS 6 Xposition Yposition Zposition Zrotation Xrotation Yrotation
      JOINT tailMid_JNT
      {
        OFFSET 7.87756 0 0
        CHANNELS 6 Xposition Yposition Zposition Zrotation Xrotation Yrotation
        JOINT tailEnd_JNT
        {
          OFFSET 6.52588 0 0
          CHANNELS 6 Xposition Yposition Zposition Zrotation Xrotation Yrotation
          End Site
          {
            OFFSET 0 0 0
          }
        }
      }
    }
    JOINT l_shoulderBkRoot_JNT
    {
      OFFSET -9.30511 7.998 11.2048
      CHANNELS 6 Xposition Yposition Zposition Zrotation Xrotation Yrotation
      JOINT l_shoulderBkMid_JNT
      {
        OFFSET 0 0 0
        CHANNELS 6 Xposition Yposition Zposition Zrotation Xrotation Yrotation
        End Site
        {
          OFFSET 0 0 0
        }
      }
    }
    JOINT r_shoulderBkRoot_JNT
    {
      OFFSET -9.30514 7.99801 -11.2048
      CHANNELS 6 Xposition Yposition Zposition Zrotation Xrotation Yrotation
      JOINT r_shoulderBkMid_JNT
      {
        OFFSET 0 0 0
        CHANNELS 6 Xposition Yposition Zposition Zrotation Xrotation Yrotation
        End Site
        {
          OFFSET 0 0 0
        }
      }
    }
  }
}
MOTION
Frames:	3
Frame Time:	0.0416667
0 0 0 0 0 -0 1.00761 64.0781 -42.9975 -26.4428 8.17979 80.4494 -2.53961 -0.880507 10.5697 -61.9944 46.9206 -44.1631 16.1374 -1.40971e-006 1.33077e-006 -3.8253 29.7662 66.4798 27.0969 8.88178e-016 -2.84217e-014 1.60173e-015 1.59028e-015 -65.8325 24.8414 8.88178e-016 2.13163e-014 3.02447 -4.7005 -53.6144 6.77858 -8.88178e-015 -1.42109e-014 -3.79152e-022 0 -0 -19.7885 -0.32628 0.759414 1.67522 -11.555 6.18724 -19.3374 2.26776 1.96791 -5.76641 -4.8374 10.3739 -18.8567 5.89316 0.779585 -17.4485 -3.97953 1.23658 -17.9158 7.49366 -1.09164 -11.3749 -1.56148 7.13192 -19.144 8.35871 -4.08562e-014 -12.2708 -1.59028e-015 8.04282 -16.3943 7.24542 7.10543e-015 -11.5182 3.18055e-015 7.91776 -19.3877 2.40349 -7.81597e-014 4.92657 6.36111e-015 8.67995 -13.796 -11.6756 4.26326e-014 -6.81969e-015 -6.36111e-015 -3.98521 -15.825 14.8229 15.3879 112.717 -2.35881 -24.301 6.55118 1.27898e-013 -2.84217e-014 -8.93918e-009 -7.59931 18.3155 6.73503 5.68434e-014 -5.32907e-014 -3.18055e-015 -3.18055e-015 -4.77083e-015 1.34858 -27.5886 -1.42109e-014 92.7985 2.54444e-014 -2.22639e-014 -15.825 14.8229 -15.3879 -4.77083e-014 1.59028e-014 3.18055e-015 -2.40814 5.46468 -2.69372 -38.7208 -17.1575 -18.4794 -2.40922 6.0083 -1.85921 1.59028e-015 -3.18055e-015 -1.59028e-015 4.72477 -9.87974 -7.10543e-015 92.7985 3.50417e-015 -90 2.68891 -0.690234 4.02874 -180 7.01671e-015 -180 0 1.42109e-014 -14.9226 3.18055e-015 3.18055e-015 3.18055e-015 7.10543e-015 0 3.94939 3.18055e-015 -3.18055e-015 -0 -7.10543e-015 2.84217e-014 15.0019 6.36111e-015 0 3.18055e-015 -2.689 -0.690236 4.02875 3.18055e-015 -3.18055e-015 -0 9.35075e-005 -0.000392738 14.9226 6.36111e-015 0 3.18055e-015 6.0207 -9.81639 0 92.7985 3.50417e-015 -90 2.71301 -0.162748 3.99146 -180 7.01671e-015 -180 0 2.84217e-014 -14.9599 3.18055e-015 3.18055e-015 3.18055e-015 -1.42109e-014 -0.0431035 3.99141 3.18055e-015 -3.18055e-015 -0 -7.10543e-015 -1.42109e-014 14.9599 6.36111e-015 0 3.18055e-015 -2.71301 -0.162761 3.99141 3.18055e-015 -3.18055e-015 -0 1.42109e-014 -1.42109e-014 14.9599 6.36111e-015 0 3.18055e-015 -7.85698 -6.72885 9.63956 34.106 19.9417 85.9622 -7.85684 -6.72882 -9.63956 -145.894 19.9417 85.9622 -2.77048 -4.41521 6.23482 41.983 14.8941 -126.264 21.051 -3.88416e-008 3.19431e-008 75.6208 -60.4367 142.817 33.1145 8.3753e-007 -2.8019e-007 142.473 7.01671e-015 180 29.9221 -7.10543e-015 -7.10543e-015 42.1034 2.5965 -1.90652 9.62649 2.13163e-014 7.10543e-015 29.859 -1.7467e-015 90 1.55663 -4.62306 -6.49976 -34.6616 19.0762 -32.4685 1.1653 -12.7157 -16.7361 71.3847 -58.7462 138.763 16.2308 -5.97551 28.2387 140.804 -0.696282 -177.977 26.7017 -9.19239 -9.89204 43.1735 0.302365 -2.92286 4.44874 -7.74942 3.58114 29.859 -1.7467e-015 90 -4.4762 0.69312 -11.7215 -89.9997 -7.59649 21.6545 13.2848 -5.74129 -7.13912 19.5311 -10.9517 16.7273 14.815 16.9375 15.0957 -33.1078 29.0989 -45.2249 23.6904 -6.58016 -3.54465 19.7865 0.507177 -41.4427 1.47758 -6.16068 -2.41079 -0 0 4.91992e-015 2.82533 14.5514 -7.10543e-015 4.99157 -5.1684e-015 -8.71673 7.87756 1.42109e-014 -2.13163e-014 18.8524 -1.92369 -7.97011 6.52588 0 2.13163e-014 -16.12 4.59479 -14.8474 -9.30511 7.998 11.2048 -6.8505 -4.18474e-016 -90 3.55271e-015 1.87792 0 -1.14301e-015 3.97569e-016 -0 -9.30514 7.99801 -11.2048 173.149 4.18474e-016 -90 0 -3.47489 0 2.48481e-016 -3.97569e-016 -1.59028e-015 
0 0 0 0 0 -0 1.0444 63.986 -42.997 -27.8238 8.25912 79.9878 -2.65605 -0.806536 10.7052 -65.4942 43.6226 -42.7901 16.1374 -1.45479e-006 1.28506e-006 -3.00453 32.9861 68.0527 27.0969 9.76996e-015 -7.10543e-015 5.9711e-015 3.57812e-015 -65.6272 24.8414 1.77636e-015 1.42109e-014 2.60577 -4.25495 -54.703 6.77858 -8.88178e-015 -1.77636e-014 -5.68727e-022 0 -6.36111e-015 -19.8458 -0.481128 0.654139 2.03138 -11.2776 5.93657 -19.3073 2.39831 2.15331 -6.43343 -4.97061 12.1191 -18.9312 5.94177 0.830777 -17.4127 -4.70358 1.42092 -17.9322 7.49213 -1.19514 -9.70912 -1.95508 7.32764 -19.144 8.35871 -3.55271e-014 -10.9492 -3.18055e-015 8.95308 -16.3943 7.24542 -1.42109e-014 -9.46153 0 9.23739 -19.3877 2.40349 -5.68434e-014 6.76052 -3.18055e-015 9.96143 -13.796 -11.6756 2.84217e-014 -6.36111e-015 3.18055e-015 -3.18055e-015 -15.825 14.8229 15.3879 112.717 -2.35881 -24.301 6.55118 1.27898e-013 0 1.12637e-007 -7.59931 29.051 6.73503 2.84217e-014 -5.68434e-014 9.54166e-015 -6.36111e-015 3.18055e-015 1.34858 -27.5886 -1.42109e-014 92.7985 6.36111e-015 -1.59028e-014 -15.825 14.8229 -15.3879 -1.27222e-014 6.36111e-015 2.8625e-014 -2.40814 5.46468 -2.69372 -41.8841 -27.3782 -23.6512 -2.40922 6.0083 -1.85921 -7.95139e-015 0 3.18055e-015 4.72477 -9.87974 -2.84217e-014 92.7985 3.50417e-015 -90 2.68891 -0.690234 4.02874 180 7.01671e-015 -180 0 0 -14.9226 1.41245e-030 1.27222e-014 -6.36111e-015 1.42109e-014 -1.42109e-014 3.94939 -3.18055e-015 3.18055e-015 -0 0 0 15.0019 -0 0 3.18055e-015 -2.689 -0.690236 4.02875 -3.18055e-015 3.18055e-015 -0 9.35075e-005 -0.000392738 14.9226 -0 0 3.18055e-015 6.0207 -9.81639 -1.42109e-014 92.7985 3.50417e-015 -90 2.71301 -0.162748 3.99146 180 7.01671e-015 -180 0 1.42109e-014 -14.9599 1.41245e-030 1.27222e-014 -6.36111e-015 0 -0.0431035 3.99141 -3.18055e-015 3.18055e-015 -0 0 0 14.9599 -0 0 3.18055e-015 -2.71301 -0.162761 3.99141 -3.18055e-015 3.18055e-015 -0 0 -2.84217e-014 14.9599 -0 0 3.18055e-015 -7.85698 -6.72885 9.63956 34.106 19.9417 85.9622 -7.85684 -6.72882 -9.63956 -145.894 19.9417 85.9622 -3.00092 -4.36935 6.16002 40.6568 13.9128 -127.778 21.051 -4.75818e-008 2.87457e-008 75.078 -60.2845 142.91 33.1145 8.3753e-007 -2.8019e-007 141.892 7.01671e-015 180 29.9221 -1.42109e-014 -1.77636e-014 41.8213 3.14479 -1.76613 9.62649 1.77636e-014 1.06581e-014 29.859 -1.7467e-015 90 1.58058 -4.63684 -6.48414 -35.9015 20.2748 -33.843 1.1653 -12.7157 -16.7361 71.5639 -58.1396 138.852 16.2308 -5.97551 28.2387 140.799 -0.539959 -178.431 26.7017 -9.19239 -9.89204 43.5203 0.727134 -3.21204 4.44874 -7.74942 3.58114 29.859 -1.7467e-015 90 -4.76289 1.01514 -11.8096 -94.2935 -8.91317 24.602 13.2848 -5.74129 -7.13912 26.0442 -12.0121 18.7757 14.815 16.9375 15.0957 -35.3922 30.5468 -44.0886 23.6904 -6.58016 -3.54465 19.9497 0.558553 -44.0843 1.47758 -6.16068 -2.41079 4.34494e-032 -7.95139e-016 3.13086e-015 2.82533 14.5514 -1.42109e-014 4.99157 7.95139e-015 -10.1695 7.87756 -4.26326e-014 7.10543e-015 19.02 -0.557345 -10.3401 6.52588 1.42109e-014 0 -16.9055 5.4439 -16.4183 -9.30511 7.998 11.2048 -6.8505 -4.18474e-016 -90 3.55271e-015 2.01094 0 3.97569e-015 -1.98785e-016 -0 -9.30514 7.99801 -11.2048 173.149 4.18474e-016 -90 7.10543e-015 -3.77274 0 1.09332e-015 -3.97569e-016 3.18055e-015 
0 0 0 0 0 -0 1.07141 63.9486 -42.9968 -28.9231 8.31896 79.7061 -2.67789 -0.791371 10.7347 -67.052 41.9372 -42.287 16.1374 -1.46551e-006 1.27455e-006 -1.90549 34.6067 68.5841 27.0969 1.42109e-014 -7.10543e-015 3.09278e-015 1.98785e-015 -65.8206 24.8414 -5.32907e-015 7.10543e-015 2.22195 -4.04496 -55.1408 6.77858 -7.10543e-015 -1.42109e-014 -9.47879e-023 9.47879e-023 -9.54166e-015 -19.8788 -0.650654 0.657312 2.51744 -11.2487 5.98121 -19.2842 2.54497 2.21458 -7.07386 -5.12417 13.1981 -18.9794 5.98646 0.842963 -17.3848 -5.34526 1.47717 -17.9631 7.46353 -1.24431 -8.35679 -2.28682 7.54466 -19.144 8.35871 -3.90799e-014 -9.81173 -4.77083e-015 9.813 -16.3943 7.24542 3.55271e-015 -8.15562 0 10.0292 -19.3877 2.40349 -8.52651e-014 8.62039 0 10.9838 -13.796 -11.6756 4.26326e-014 -0 0 1.39725 -15.825 14.8229 15.3879 112.717 -2.35881 -24.301 6.55118 1.7053e-013 5.68434e-014 3.47124e-008 -7.59931 34.5141 6.73503 1.42109e-014 -4.9738e-014 -8.82781e-032 3.18055e-015 1.59028e-015 1.34858 -27.5886 -2.84217e-014 92.7985 1.27222e-014 -1.27222e-014 -15.825 14.8229 -15.3879 -1.59028e-014 0 1.27222e-014 -2.40814 5.46468 -2.69372 -44.2332 -32.8809 -27.0165 -2.40922 6.0083 -1.85921 3.18055e-015 -3.18055e-015 3.18055e-015 4.72477 -9.87974 -2.84217e-014 92.7985 3.50417e-015 -90 2.68891 -0.690234 4.02874 -180 7.01671e-015 -180 0 0 -14.9226 -3.18055e-015 6.36111e-015 3.18055e-015 0 1.42109e-014 3.94939 0 0 -0 0 0 15.0019 3.18055e-015 -3.18055e-015 -3.18055e-015 -2.689 -0.690236 4.02875 0 0 -0 9.35075e-005 -0.000392738 14.9226 3.18055e-015 -3.18055e-015 -3.18055e-015 6.0207 -9.81639 0 92.7985 3.50417e-015 -90 2.71301 -0.162748 3.99146 -180 7.01671e-015 -180 0 1.42109e-014 -14.9599 -3.18055e-015 6.36111e-015 3.18055e-015 0 -0.0431035 3.99141 0 0 -0 0 1.42109e-014 14.9599 3.18055e-015 -3.18055e-015 -3.18055e-015 -2.71301 -0.162761 3.99141 0 0 -0 1.42109e-014 0 14.9599 3.18055e-015 -3.18055e-015 -3.18055e-015 -7.85698 -6.72885 9.63956 34.106 19.9417 85.9622 -7.85684 -6.72882 -9.63956 -145.894 19.9417 85.9622 -3.14603 -4.33717 6.11016 39.5566 13.3131 -128.837 21.051 -5.11809e-008 2.64109e-008 74.7006 -60.1756 142.922 33.1145 8.3753e-007 -2.8019e-007 141.479 7.01671e-015 180 29.9221 0 -2.13163e-014 41.6182 3.47512 -1.68147 9.62649 2.13163e-014 3.55271e-015 29.859 -1.7467e-015 90 1.58133 -4.64332 -6.47932 -36.9399 21.1362 -34.7229 1.1653 -12.7157 -16.7361 71.6812 -57.7653 138.883 16.2308 -5.97551 28.2387 140.796 -0.424416 -178.767 26.7017 -9.19239 -9.89204 43.7293 1.01256 -3.373 4.44874 -7.74942 3.58114 29.859 -1.7467e-015 90 -4.86957 1.14292 -11.8379 -96.8021 -9.91553 26.3291 13.2848 -5.74129 -7.13912 30.8562 -12.2309 21.0089 14.815 16.9375 15.0957 -38.3881 32.3237 -42.5257 23.6904 -6.58016 -3.54465 21.0143 0.492853 -46.5246 1.47758 -6.16068 -2.41079 7.95139e-016 7.95139e-016 3.08116e-015 2.82533 14.5514 -1.42109e-014 4.99157 -7.55382e-015 -11.0412 7.87756 7.10543e-015 -1.42109e-014 19.1217 0 -11.5862 6.52588 -1.42109e-014 1.42109e-014 -17.3709 5.59497 -16.9225 -9.30511 7.998 11.2048 -6.8505 -4.18474e-016 -90 0 2.0377 0 7.95139e-016 1.39149e-015 1.59028e-015 -9.30514 7.99801 -11.2048 173.149 4.18474e-016 -90 0 -3.88753 0 9.44227e-016 -1.98785e-016 -3.18055e-015 
